<?xml version="1.0" encoding="UTF-8" standalone="no"?>
<svg
   version="1.0"
   width="579.000000pt"
   height="203.000000pt"
   viewBox="0 0 579.000000 203.000000"
   preserveAspectRatio="xMidYMid meet"
   id="svg10"
   sodipodi:docname="aristo_logo_white.svg"
   inkscape:version="1.4.2 (f4327f4, 2025-05-13)"
   xmlns:inkscape="http://www.inkscape.org/namespaces/inkscape"
   xmlns:sodipodi="http://sodipodi.sourceforge.net/DTD/sodipodi-0.dtd"
   xmlns="http://www.w3.org/2000/svg"
   xmlns:svg="http://www.w3.org/2000/svg">
  <defs
     id="defs10" />
  <sodipodi:namedview
     id="namedview10"
     pagecolor="#ffffff"
     bordercolor="#000000"
     borderopacity="0.25"
     inkscape:showpageshadow="2"
     inkscape:pageopacity="0.0"
     inkscape:pagecheckerboard="0"
     inkscape:deskcolor="#d1d1d1"
     inkscape:document-units="pt"
     inkscape:zoom="2.3005181"
     inkscape:cx="386.21735"
     inkscape:cy="135.40428"
     inkscape:window-width="1920"
     inkscape:window-height="1017"
     inkscape:window-x="-8"
     inkscape:window-y="32"
     inkscape:window-maximized="1"
     inkscape:current-layer="svg10" />
  <g
     transform="translate(0.000000,203.000000) scale(0.100000,-0.100000)"
     fill="#000000"
     stroke="none"
     id="g10"
     style="fill:#ffffff">
    <path
       d="M940 1448 c-195 -197 -356 -363 -358 -368 -2 -5 15 -27 37 -50 43 -45 44 -45 102 4 l37 30 -24 19 c-32 25 -30 50 7 81 40 34 72 41 120 27 l39 -12 162 134 c223 182 303 242 368 274 30 14 57 28 59 30 6 4 -181 194 -189 192 -3 -1 -165 -163 -360 -361z"
       id="path1"
       style="fill:#ffffff" />
    <path
       d="M1387 1465 c-20 -8 -61 -30 -90 -49 -75 -50 -299 -258 -289 -268 24 -24 410 -26 550 -2 93 15 21 -57 -108 -108 -48 -19 -74 -22 -215 -23 -151 0 -278 8 -328 21 -18 4 -38 -8 -90 -56 -37 -34 -67 -67 -67 -73 0 -7 124 -136 275 -287 l275 -275 208 208 208 208 -32 182 c-64 374 -100 494 -155 523 -35 17 -92 17 -142 -1z"
       id="path2"
       style="fill:#ffffff" />
    <path
       d="M1759 1328 c5 -13 18 -77 30 -143 12 -66 29 -159 39 -207 l18 -87 94 94 95 95 -135 135 c-74 74 -138 135 -142 135 -4 0 -4 -10 1 -22z"
       id="path3"
       style="fill:#ffffff" />
    <path
       d="M3515 1083 c-62 -15 -84 -85 -40 -128 35 -36 115 -36 150 0 42 41 28 96 -30 121 -35 14 -45 15 -80 7z"
       id="path4"
       style="fill:#ffffff" />
    <path
       d="M1980 725 c-209 -209 -361 -354 -387 -367 -26 -14 -43 -30 -43 -40 0 -16 14 -18 160 -18 l160 0 0 24 c0 21 -6 25 -47 32 -71 13 -69 36 8 118 l62 66 210 -2 210 -3 14 -69 c8 -38 12 -75 9 -82 -3 -7 -27 -19 -53 -27 -36 -10 -49 -19 -51 -35 -3 -22 -2 -22 192 -22 182 0 196 1 196 18 0 12 -15 25 -40 36 -22 10 -44 25 -49 34 -5 9 -18 69 -30 132 -12 63 -33 169 -46 235 -13 66 -29 154 -35 195 -18 110 -24 120 -62 120 -30 0 -65 -32 -378 -345z m290 35 c12 -58 24 -115 27 -127 l5 -23 -163 0 -164 0 135 135 c74 74 136 132 137 128 1 -5 12 -55 23 -113z"
       id="path5"
       style="fill:#ffffff" />
    <path
       d="M4345 867 l-30 -82 -55 -3 c-37 -2 -59 -8 -67 -19 -22 -28 -15 -33 42 -33 30 0 55 -3 55 -8 0 -4 -14 -45 -31 -92 -72 -199 -77 -223 -59 -277 19 -53 94 -68 181 -38 49 18 87 51 130 112 34 49 35 53 10 53 -10 0 -31 -16 -46 -35 -45 -60 -67 -76 -100 -73 -48 5 -45 45 16 214 l51 144 59 0 c47 0 60 4 69 19 15 30 14 31 -45 31 -65 0 -64 -1 -31 98 l25 72 -72 0 -72 0 -30 -83z"
       id="path6"
       style="fill:#ffffff" />
    <path
       d="M3408 796 c-26 -7 -63 -25 -83 -41 -34 -25 -95 -107 -95 -127 0 -14 29 -9 42 8 50 64 99 105 120 102 20 -3 23 -8 22 -48 0 -33 -14 -73 -53 -152 -63 -126 -70 -178 -26 -215 50 -44 163 -22 229 43 33 34 66 83 66 102 0 21 -40 13 -49 -10 -17 -43 -59 -80 -89 -76 -46 5 -41 48 23 175 44 90 55 121 55 161 0 34 -5 54 -18 65 -25 23 -89 29 -144 13z"
       id="path7"
       style="fill:#ffffff" />
    <path
       d="M3920 803 c-103 -15 -155 -51 -169 -115 -11 -47 2 -74 75 -155 81 -91 98 -118 90 -147 -11 -43 -82 -56 -123 -24 -7 6 -13 25 -13 42 0 41 -16 56 -56 56 -84 0 -84 -100 0 -135 77 -32 225 -26 284 11 32 21 62 73 62 110 0 34 -11 51 -107 162 -84 97 -85 152 -4 154 37 1 61 -17 61 -46 0 -33 16 -49 49 -49 39 0 61 19 61 52 0 43 -38 71 -111 81 -35 5 -66 9 -69 8 -3 0 -16 -2 -30 -5z"
       id="path8"
       style="fill:#ffffff" />
    <path
       d="M4911 800 c-102 -21 -205 -98 -256 -192 -24 -43 -30 -65 -30 -119 0 -57 4 -70 30 -105 39 -53 50 -60 118 -79 65 -18 110 -14 195 17 227 85 310 368 132 455 -53 26 -128 35 -189 23z m113 -73 c56 -76 -11 -293 -113 -363 -48 -32 -84 -31 -111 4 -20 24 -22 36 -18 112 3 72 9 94 37 146 35 66 69 104 115 128 34 17 63 9 90 -27z"
       id="path9"
       style="fill:#ffffff" />
    <path
       d="M2771 789 c-43 -17 -83 -52 -112 -97 -33 -53 -36 -72 -11 -72 9 0 31 22 50 51 38 58 75 80 97 58 14 -15 7 -40 -94 -313 -23 -61 -41 -111 -41 -113 0 -2 33 -3 74 -3 l74 0 26 78 c30 90 64 150 138 246 70 92 78 96 118 63 59 -50 130 -27 130 43 0 52 -26 70 -103 70 -55 0 -62 -3 -96 -37 -20 -21 -47 -51 -59 -68 l-21 -30 -1 52 c0 69 -15 83 -88 82 -31 0 -68 -5 -81 -10z"
       id="path10"
       style="fill:#ffffff" />
  </g>
  <path
     style="fill:#000080;fill-opacity:1;stroke-width:0.434685"
     d="m 86.018668,136.24228 c -2.074393,-1.63933 -7.475581,-7.71813 -7.819051,-8.8 -0.17742,-0.55885 0.483988,-1.57546 2.262432,-3.47748 6.462702,-6.91176 54.436491,-55.697358 72.745071,-73.976061 l 20.46358,-20.43018 12.16408,12.254248 c 6.69025,6.739837 12.16409,12.516783 12.16409,12.837659 0,0.320876 -2.38624,1.750552 -5.30275,3.177058 -11.19728,5.476739 -23.13246,14.397933 -60.71327,45.381386 -6.54378,5.39501 -12.11861,9.77597 -12.38851,9.73546 -0.26991,-0.0405 -2.44682,-0.59222 -4.83758,-1.22604 -5.03427,-1.33464 -7.78061,-1.24225 -11.29794,0.3801 -3.26174,1.50446 -6.93363,4.70829 -8.057922,7.03077 -1.406523,2.90549 -0.779781,4.71702 2.60713,7.53563 l 2.560902,2.13121 -3.528178,2.95333 c -4.366635,3.65518 -7.560676,5.82833 -8.566329,5.82833 -0.421254,0 -1.526344,-0.60094 -2.455755,-1.33542 z"
     id="path11"
     transform="scale(0.75)" />
  <path
     style="fill:#000080;fill-opacity:1;stroke-width:0.434685"
     d="m 144.72007,195.71678 c -27.27559,-27.46537 -43.27845,-44.01578 -44.1696,-45.68089 -0.36777,-0.68719 0.5214,-1.74867 6.01801,-7.1843 3.54725,-3.50789 7.72099,-7.22585 9.27499,-8.26214 3.17092,-2.11454 2.25851,-2.05736 11.95383,-0.74909 7.53401,1.01663 20.06729,1.56192 35.9241,1.56296 16.94279,0.001 22.1068,-0.40911 27.39364,-2.17611 8.16361,-2.72849 17.34753,-7.82715 20.75269,-11.52131 1.9172,-2.07991 2.1492,-2.84129 1.12481,-3.69146 -0.75298,-0.62492 -3.58784,-0.48553 -14.34164,0.70514 -5.73313,0.63478 -10.96405,0.77433 -29.7759,0.79438 -22.85026,0.0244 -29.93433,-0.32637 -33.15765,-1.64162 l -1.24725,-0.50894 3.03413,-3.47674 c 2.9524,-3.38309 13.54056,-13.41834 21.73121,-20.596402 9.51638,-8.33991 15.79018,-12.826928 22.71286,-16.244226 4.78088,-2.360023 8.10375,-3.126671 13.44247,-3.101432 7.72946,0.03654 10.60161,1.745556 14.04835,8.359205 4.44788,8.534659 7.93641,23.392675 15.31206,65.215815 l 3.78473,21.46106 -27.54707,27.54964 c -15.1509,15.1523 -27.67185,27.54963 -27.82433,27.54963 -0.15249,0 -12.95248,-12.76342 -28.44444,-28.36317 z"
     id="path12"
     transform="scale(0.75)" />
  <path
     style="fill:#000080;fill-opacity:1;stroke-width:0.434685"
     d="m 246.05796,150.15437 c -1.08584,-4.64205 -2.922,-13.97912 -5.90901,-30.04807 -1.92461,-10.35362 -4.05276,-21.074262 -4.72921,-23.823642 -0.67646,-2.749381 -1.16359,-5.074131 -1.08252,-5.166112 0.30047,-0.340891 7.30909,6.375869 21.69038,20.787104 l 14.7776,14.80837 -12.24993,12.24994 c -11.07224,11.07223 -12.27372,12.14826 -12.49731,11.19241 z"
     id="path13"
     transform="scale(0.75)" />
</svg>
