<?xml version="1.0" standalone="no"?>
<!DOCTYPE svg PUBLIC "-//W3C//DTD SVG 20010904//EN" "http://www.w3.org/TR/2001/REC-SVG-20010904/DTD/svg10.dtd">
<svg version="1.0" xmlns="http://www.w3.org/2000/svg"
     width="579pt" height="203pt" viewBox="0 0 579 203" preserveAspectRatio="xMidYMid meet">
    <style>
        /* Azul corporativo y texto */
        :root { --aristo-blue:#0B4A8B; --aristo-text:#111827; }
        /* Por defecto todo en color de texto */
        g > path { fill: var(--aristo-text); }
        /* Los primeros N paths (isologo) en azul */
        g > path:nth-child(-n+3) { fill: var(--aristo-blue); }
    </style>
    <g transform="translate(0,203) scale(0.1,-0.1)" stroke="none">
        <path d="M940 1448 c-195 -197 -356 -363 -358 -368 -2 -5 15 -27 37 -50 43
-45 44 -45 102 4 l37 30 -24 19 c-32 25 -30 50 7 81 40 34 72 41 120 27 l39
-12 162 134 c223 182 303 242 368 274 30 14 57 28 59 30 6 4 -181 194 -189
192 -3 -1 -165 -163 -360 -361z"/>
        <path d="M1387 1465 c-20 -8 -61 -30 -90 -49 -75 -50 -299 -258 -289 -268 24
-24 410 -26 550 -2 93 15 21 -57 -108 -108 -48 -19 -74 -22 -215 -23 -151 0
-278 8 -328 21 -18 4 -38 -8 -90 -56 -37 -34 -67 -67 -67 -73 0 -7 124 -136
275 -287 l275 -275 208 208 208 208 -32 182 c-64 374 -100 494 -155 523 -35
17 -92 17 -142 -1z"/>
        <path d="M1759 1328 c5 -13 18 -77 30 -143 12 -66 29 -159 39 -207 l18 -87 94
94 95 95 -135 135 c-74 74 -138 135 -142 135 -4 0 -4 -10 1 -22z"/>
        <path d="M3515 1083 c-62 -15 -84 -85 -40 -128 35 -36 115 -36 150 0 42 41 28
96 -30 121 -35 14 -45 15 -80 7z"/>
        <path d="M1980 725 c-209 -209 -361 -354 -387 -367 -26 -14 -43 -30 -43 -40 0
-16 14 -18 160 -18 l160 0 0 24 c0 21 -6 25 -47 32 -71 13 -69 36 8 118 l62
66 210 -2 210 -3 14 -69 c8 -38 12 -75 9 -82 -3 -7 -27 -19 -53 -27 -36 -10
-49 -19 -51 -35 -3 -22 -2 -22 192 -22 182 0 196 1 196 18 0 12 -15 25 -40 36
-22 10 -44 25 -49 34 -5 9 -18 69 -30 132 -12 63 -33 169 -46 235 -13 66 -29
154 -35 195 -18 110 -24 120 -62 120 -30 0 -65 -32 -378 -345z m290 35 c12
-58 24 -115 27 -127 l5 -23 -163 0 -164 0 135 135 c74 74 136 132 137 128 1
-5 12 -55 23 -113z"/>
        <path d="M4345 867 l-30 -82 -55 -3 c-37 -2 -59 -8 -67 -19 -22 -28 -15 -33
42 -33 30 0 55 -3 55 -8 0 -4 -14 -45 -31 -92 -72 -199 -77 -223 -59 -277 19
-53 94 -68 181 -38 49 18 87 51 130 112 34 49 35 53 10 53 -10 0 -31 -16 -46
-35 -45 -60 -67 -76 -100 -73 -48 5 -45 45 16 214 l51 144 59 0 c47 0 60 4 69
19 15 30 14 31 -45 31 -65 0 -64 -1 -31 98 l25 72 -72 0 -72 0 -30 -83z"/>
        <path d="M3408 796 c-26 -7 -63 -25 -83 -41 -34 -25 -95 -107 -95 -127 0 -14
29 -9 42 8 50 64 99 105 120 102 20 -3 23 -8 22 -48 0 -33 -14 -73 -53 -152
-63 -126 -70 -178 -26 -215 50 -44 163 -22 229 43 33 34 66 83 66 102 0 21
-40 13 -49 -10 -17 -43 -59 -80 -89 -76 -46 5 -41 48 23 175 44 90 55 121 55
161 0 34 -5 54 -18 65 -25 23 -89 29 -144 13z"/>
        <path d="M3920 803 c-103 -15 -155 -51 -169 -115 -11 -47 2 -74 75 -155 81
-91 98 -118 90 -147 -11 -43 -82 -56 -123 -24 -7 6 -13 25 -13 42 0 41 -16 56
-56 56 -84 0 -84 -100 0 -135 77 -32 225 -26 284 11 32 21 62 73 62 110 0 34
-11 51 -107 162 -84 97 -85 152 -4 154 37 1 61 -17 61 -46 0 -33 16 -49 49
-49 39 0 61 19 61 52 0 43 -38 71 -111 81 -35 5 -66 9 -69 8 -3 0 -16 -2 -30
-5z"/>
        <path d="M4911 800 c-102 -21 -205 -98 -256 -192 -24 -43 -30 -65 -30 -119 0
-57 4 -70 30 -105 39 -53 50 -60 118 -79 65 -18 110 -14 195 17 227 85 310
368 132 455 -53 26 -128 35 -189 23z m113 -73 c56 -76 -11 -293 -113 -363 -48
-32 -84 -31 -111 4 -20 24 -22 36 -18 112 3 72 9 94 37 146 35 66 69 104 115
128 34 17 63 9 90 -27z"/>
        <path d="M2771 789 c-43 -17 -83 -52 -112 -97 -33 -53 -36 -72 -11 -72 9 0 31
22 50 51 38 58 75 80 97 58 14 -15 7 -40 -94 -313 -23 -61 -41 -111 -41 -113
0 -2 33 -3 74 -3 l74 0 26 78 c30 90 64 150 138 246 70 92 78 96 118 63 59
-50 130 -27 130 43 0 52 -26 70 -103 70 -55 0 -62 -3 -96 -37 -20 -21 -47 -51
-59 -68 l-21 -30 -1 52 c0 69 -15 83 -88 82 -31 0 -68 -5 -81 -10z"/>
    </g>
</svg>
