<?xml version="1.0" standalone="no"?>
<!DOCTYPE svg PUBLIC "-//W3C//DTD SVG 20010904//EN" "http://www.w3.org/TR/2001/REC-SVG-20010904/DTD/svg10.dtd">
<svg version="1.0" xmlns="http://www.w3.org/2000/svg"
     width="949.000000pt" height="290.000000pt" viewBox="0 0 949.000000 290.000000"
     preserveAspectRatio="xMidYMid meet">
    <style>
        :root{
        --interco-black:#111827; /* texto/inter */
        --interco-red:#E30613;   /* rojo corporativo co */
        }
        /* Todo negro por defecto */
        g > path { fill: var(--interco-black); }
        /* Solo “co” en rojo (paths 9 y 10) */
        g > path:nth-child(9),
        g > path:nth-child(10) { fill: var(--interco-red); }
    </style>

    <g transform="translate(0.000000,290.000000) scale(0.100000,-0.100000)" stroke="none">
        <path d="M582 2753 c-49 -24 -75 -68 -80 -132 -6 -99 56 -171 147 -171 91 0
151 64 151 160 0 120 -113 195 -218 143z"/>
        <path d="M2830 2571 l-115 -47 -3 -157 -3 -157 -84 0 -85 0 0 -100 0 -100 85
0 85 0 0 -455 c0 -295 4 -473 11 -507 28 -131 121 -253 231 -304 58 -27 72
-29 183 -29 113 0 268 18 294 34 9 6 8 34 -5 117 -9 60 -17 110 -18 111 0 1
-32 -9 -71 -23 -164 -56 -302 -10 -352 116 -16 40 -18 92 -21 493 l-3 447 191
0 190 0 0 100 0 100 -190 0 -190 0 0 205 c0 113 -3 205 -7 204 -5 0 -60 -22
-123 -48z"/>
        <path d="M7730 2580 c-210 -16 -450 -66 -665 -140 -109 -37 -492 -216 -483
-226 2 -2 22 2 44 8 21 7 98 12 169 12 116 0 138 -3 208 -27 85 -30 192 -81
219 -104 15 -13 11 -21 -40 -96 -30 -45 -59 -86 -63 -91 -4 -5 -21 1 -38 13
-42 30 -149 69 -225 81 -183 29 -360 -60 -443 -223 -63 -125 -85 -357 -49
-511 44 -186 165 -304 346 -336 123 -22 241 4 359 80 34 22 65 40 69 40 6 0
25 -40 88 -186 l13 -32 -67 -35 c-37 -20 -108 -48 -157 -63 -82 -25 -104 -28
-255 -28 -157 0 -168 1 -240 28 -161 61 -277 165 -354 318 -65 128 -81 209
-80 408 1 183 16 261 72 380 l30 63 -55 -54 c-124 -121 -256 -315 -325 -479
-112 -262 -108 -524 11 -708 129 -198 382 -336 726 -393 123 -21 493 -18 628
4 309 52 623 159 870 298 152 85 380 242 268 184 -107 -55 -307 -71 -445 -35
-107 27 -169 63 -252 145 -121 120 -184 268 -206 485 -53 528 239 906 677 877
235 -16 401 -125 498 -327 68 -141 82 -218 82 -440 0 -160 -3 -196 -23 -267
-27 -100 -57 -170 -106 -243 -32 -49 -26 -44 66 51 205 210 343 447 393 673
25 110 17 297 -15 381 -82 217 -277 368 -590 458 -170 49 -444 73 -660 57z"/>
        <path d="M1700 2229 c-104 -17 -200 -79 -278 -178 l-19 -24 -35 89 -36 89 -86
3 -86 3 0 -736 0 -735 125 0 125 0 0 554 0 553 55 52 c30 29 85 66 122 84 57
26 80 31 143 32 178 0 256 -81 280 -293 5 -48 10 -288 10 -534 l0 -448 126 0
126 0 -5 528 c-5 576 -8 609 -66 737 -83 180 -266 262 -501 224z"/>
        <path d="M4147 2230 c-259 -47 -458 -242 -533 -525 -27 -99 -27 -390 -1 -485
72 -261 253 -442 495 -496 95 -21 251 -14 367 16 84 21 202 74 245 109 l25 20
-35 67 c-19 37 -43 80 -53 96 l-18 29 -31 -26 c-85 -72 -215 -110 -351 -102
-76 4 -99 10 -162 41 -122 60 -199 166 -231 314 -7 37 -14 88 -14 115 l0 47
504 0 505 0 7 56 c13 105 0 262 -29 343 -65 186 -209 317 -401 366 -75 19
-226 27 -289 15z m254 -239 c32 -12 77 -39 101 -61 46 -40 102 -133 111 -185
3 -16 8 -47 12 -67 l6 -38 -387 0 -387 0 7 47 c14 101 98 224 191 278 97 58
235 68 346 26z"/>
        <path d="M5719 2230 c-107 -18 -201 -81 -272 -182 l-42 -60 -3 111 -3 111
-124 0 -125 0 0 -735 0 -735 125 0 125 0 0 443 c0 479 5 530 55 634 32 65 107
144 165 174 67 35 159 33 224 -4 27 -15 50 -26 51 -25 6 9 95 240 95 247 0 9
-156 32 -201 30 -13 -1 -45 -5 -70 -9z"/>
        <path d="M322 2103 l3 -108 93 -3 92 -3 0 -624 0 -625 125 0 125 0 0 735 0
735 -220 0 -221 0 3 -107z"/>
        <path d="M7922 2003 c-109 -38 -206 -177 -238 -342 -21 -106 -15 -353 11 -445
49 -175 143 -268 287 -285 203 -24 336 82 400 317 17 63 21 107 21 237 0 175
-17 264 -67 363 -34 67 -115 138 -179 157 -64 19 -179 18 -235 -2z"/>
        <path d="M8753 994 c-94 -46 -96 -191 -4 -239 120 -62 247 65 183 184 -34 63
-113 87 -179 55z m117 -19 c104 -54 62 -215 -56 -215 -39 0 -51 5 -80 34 -26
26 -34 42 -34 69 0 53 16 85 52 107 39 24 78 25 118 5z"/>
        <path d="M8750 881 c0 -44 5 -83 10 -86 6 -4 10 8 10 29 0 60 39 60 78 1 12
-19 27 -35 32 -35 16 0 11 17 -14 47 -24 28 -24 29 -5 41 10 7 19 23 19 37 0
30 -31 45 -91 45 l-39 0 0 -79z m100 44 c18 -22 3 -35 -41 -35 -35 0 -39 3
-39 25 0 22 4 25 34 25 18 0 39 -7 46 -15z"/>
    </g>
</svg>
