<?xml version="1.0" encoding="UTF-8" standalone="no"?>
<svg
   version="1.0"
   width="949.000000pt"
   height="290.000000pt"
   viewBox="0 0 949.000000 290.000000"
   preserveAspectRatio="xMidYMid meet"
   id="svg10"
   sodipodi:docname="interco_logo_white.svg"
   inkscape:version="1.4.2 (f4327f4, 2025-05-13)"
   xmlns:inkscape="http://www.inkscape.org/namespaces/inkscape"
   xmlns:sodipodi="http://sodipodi.sourceforge.net/DTD/sodipodi-0.dtd"
   xmlns="http://www.w3.org/2000/svg"
   xmlns:svg="http://www.w3.org/2000/svg">
  <defs
     id="defs10" />
  <sodipodi:namedview
     id="namedview10"
     pagecolor="#ffffff"
     bordercolor="#000000"
     borderopacity="0.25"
     inkscape:showpageshadow="2"
     inkscape:pageopacity="0.0"
     inkscape:pagecheckerboard="0"
     inkscape:deskcolor="#d1d1d1"
     inkscape:document-units="pt"
     inkscape:zoom="0.70179136"
     inkscape:cx="707.47522"
     inkscape:cy="167.42868"
     inkscape:window-width="1920"
     inkscape:window-height="1017"
     inkscape:window-x="-8"
     inkscape:window-y="32"
     inkscape:window-maximized="1"
     inkscape:current-layer="svg10" />
  <g
     transform="translate(0.000000,290.000000) scale(0.100000,-0.100000)"
     fill="#000000"
     stroke="none"
     id="g10">
    <path
       d="M582 2753 c-49 -24 -75 -68 -80 -132 -6 -99 56 -171 147 -171 91 0 151 64 151 160 0 120 -113 195 -218 143z"
       id="path1" />
    <path
       d="M2830 2571 l-115 -47 -3 -157 -3 -157 -84 0 -85 0 0 -100 0 -100 85 0 85 0 0 -455 c0 -295 4 -473 11 -507 28 -131 121 -253 231 -304 58 -27 72 -29 183 -29 113 0 268 18 294 34 9 6 8 34 -5 117 -9 60 -17 110 -18 111 0 1 -32 -9 -71 -23 -164 -56 -302 -10 -352 116 -16 40 -18 92 -21 493 l-3 447 191 0 190 0 0 100 0 100 -190 0 -190 0 0 205 c0 113 -3 205 -7 204 -5 0 -60 -22 -123 -48z"
       id="path2" />
    <path
       d="M7730 2580 c-210 -16 -450 -66 -665 -140 -109 -37 -492 -216 -483 -226 2 -2 22 2 44 8 21 7 98 12 169 12 116 0 138 -3 208 -27 85 -30 192 -81 219 -104 15 -13 11 -21 -40 -96 -30 -45 -59 -86 -63 -91 -4 -5 -21 1 -38 13 -42 30 -149 69 -225 81 -183 29 -360 -60 -443 -223 -63 -125 -85 -357 -49 -511 44 -186 165 -304 346 -336 123 -22 241 4 359 80 34 22 65 40 69 40 6 0 25 -40 88 -186 l13 -32 -67 -35 c-37 -20 -108 -48 -157 -63 -82 -25 -104 -28 -255 -28 -157 0 -168 1 -240 28 -161 61 -277 165 -354 318 -65 128 -81 209 -80 408 1 183 16 261 72 380 l30 63 -55 -54 c-124 -121 -256 -315 -325 -479 -112 -262 -108 -524 11 -708 129 -198 382 -336 726 -393 123 -21 493 -18 628 4 309 52 623 159 870 298 152 85 380 242 268 184 -107 -55 -307 -71 -445 -35 -107 27 -169 63 -252 145 -121 120 -184 268 -206 485 -53 528 239 906 677 877 235 -16 401 -125 498 -327 68 -141 82 -218 82 -440 0 -160 -3 -196 -23 -267 -27 -100 -57 -170 -106 -243 -32 -49 -26 -44 66 51 205 210 343 447 393 673 25 110 17 297 -15 381 -82 217 -277 368 -590 458 -170 49 -444 73 -660 57z"
       id="path3" />
    <path
       d="M1700 2229 c-104 -17 -200 -79 -278 -178 l-19 -24 -35 89 -36 89 -86 3 -86 3 0 -736 0 -735 125 0 125 0 0 554 0 553 55 52 c30 29 85 66 122 84 57 26 80 31 143 32 178 0 256 -81 280 -293 5 -48 10 -288 10 -534 l0 -448 126 0 126 0 -5 528 c-5 576 -8 609 -66 737 -83 180 -266 262 -501 224z"
       id="path4" />
    <path
       d="M4147 2230 c-259 -47 -458 -242 -533 -525 -27 -99 -27 -390 -1 -485 72 -261 253 -442 495 -496 95 -21 251 -14 367 16 84 21 202 74 245 109 l25 20 -35 67 c-19 37 -43 80 -53 96 l-18 29 -31 -26 c-85 -72 -215 -110 -351 -102 -76 4 -99 10 -162 41 -122 60 -199 166 -231 314 -7 37 -14 88 -14 115 l0 47 504 0 505 0 7 56 c13 105 0 262 -29 343 -65 186 -209 317 -401 366 -75 19 -226 27 -289 15z m254 -239 c32 -12 77 -39 101 -61 46 -40 102 -133 111 -185 3 -16 8 -47 12 -67 l6 -38 -387 0 -387 0 7 47 c14 101 98 224 191 278 97 58 235 68 346 26z"
       id="path5" />
    <path
       d="M5719 2230 c-107 -18 -201 -81 -272 -182 l-42 -60 -3 111 -3 111 -124 0 -125 0 0 -735 0 -735 125 0 125 0 0 443 c0 479 5 530 55 634 32 65 107 144 165 174 67 35 159 33 224 -4 27 -15 50 -26 51 -25 6 9 95 240 95 247 0 9 -156 32 -201 30 -13 -1 -45 -5 -70 -9z"
       id="path6" />
    <path
       d="M322 2103 l3 -108 93 -3 92 -3 0 -624 0 -625 125 0 125 0 0 735 0 735 -220 0 -221 0 3 -107z"
       id="path7" />
    <path
       d="M7922 2003 c-109 -38 -206 -177 -238 -342 -21 -106 -15 -353 11 -445 49 -175 143 -268 287 -285 203 -24 336 82 400 317 17 63 21 107 21 237 0 175 -17 264 -67 363 -34 67 -115 138 -179 157 -64 19 -179 18 -235 -2z"
       id="path8" />
    <path
       d="M8753 994 c-94 -46 -96 -191 -4 -239 120 -62 247 65 183 184 -34 63 -113 87 -179 55z m117 -19 c104 -54 62 -215 -56 -215 -39 0 -51 5 -80 34 -26 26 -34 42 -34 69 0 53 16 85 52 107 39 24 78 25 118 5z"
       id="path9" />
    <path
       d="M8750 881 c0 -44 5 -83 10 -86 6 -4 10 8 10 29 0 60 39 60 78 1 12 -19 27 -35 32 -35 16 0 11 17 -14 47 -24 28 -24 29 -5 41 10 7 19 23 19 37 0 30 -31 45 -91 45 l-39 0 0 -79z m100 44 c18 -22 3 -35 -41 -35 -35 0 -39 3 -39 25 0 22 4 25 34 25 18 0 39 -7 46 -15z"
       id="path10" />
  </g>
  <path
     style="fill:#800000;stroke-width:0.712462"
     d="m 882.02853,350.13286 c -15.67184,-1.21439 -39.64901,-7.34451 -55.75055,-14.25345 -32.5931,-13.98524 -52.78505,-35.02559 -59.78194,-62.29382 -1.87605,-7.31132 -2.0093,-8.76913 -1.98623,-21.73011 0.0207,-11.60321 0.28697,-15.12599 1.61583,-21.37387 5.10461,-24.00031 15.99926,-46.5025 34.32209,-70.89002 6.4616,-8.60034 21.18846,-25.0067 21.85156,-24.3436 0.16042,0.16042 -0.9553,3.13848 -2.47936,6.61793 -7.14516,16.3125 -8.26157,23.01214 -8.29626,49.78648 -0.0346,26.72976 1.20735,34.18814 8.22111,49.36938 9.27821,20.08265 22.35021,33.84932 40.90987,43.08389 13.46663,6.70048 21.80612,8.04859 45.95383,7.42861 21.42275,-0.55002 29.53447,-2.52166 48.97886,-11.90482 9.95806,-4.8054 10.13663,-4.93213 9.45932,-6.71357 -1.62072,-4.26283 -7.54867,-17.56976 -10.09977,-22.67174 l -2.76505,-5.52989 -2.8812,1.46988 c -1.58465,0.80844 -4.54483,2.53252 -6.57815,3.8313 -5.42444,3.46483 -13.029,7.1329 -18.30244,8.82819 -21.42347,6.88714 -44.99425,1.62469 -59.84581,-13.36128 -8.14666,-8.22039 -13.33169,-18.29852 -16.15405,-31.39857 -2.00992,-9.32906 -1.84225,-33.15328 0.30856,-43.84273 4.26873,-21.21555 12.18242,-34.10153 26.56773,-43.26067 8.81488,-5.61245 15.7324,-7.66894 27.39346,-8.14371 8.29314,-0.33766 10.05701,-0.18506 16.8619,1.45878 8.61314,2.08067 18.18954,5.74755 23.42785,8.9707 5.83462,3.59009 5.91575,3.54176 13.71536,-8.17068 7.15056,-10.73776 8.32659,-13.23219 6.99499,-14.83668 -2.57169,-3.0987 -28.94111,-14.664495 -37.63378,-16.506418 -8.37279,-1.774143 -35.53143,-1.341367 -44.74019,0.71294 -3.70227,0.825907 4.46272,-3.638159 20.40416,-11.155634 29.60499,-13.960763 44.79593,-19.747946 66.87249,-25.475925 43.60848,-11.314658 80.47028,-14.028871 120.69978,-8.887401 43.0709,5.504603 78.4437,22.622535 96.6353,46.764593 4.848,6.433729 10.7888,18.088845 12.3865,24.300845 3.1986,12.43567 3.2592,35.2366 0.1274,47.85458 -6.1694,24.85582 -18.6401,48.54982 -37.9332,72.07192 -6.505,7.93089 -20.9368,23.26733 -21.4303,22.77376 -0.1704,-0.17038 0.4791,-1.55944 1.4432,-3.0868 5.6766,-8.9922 11.5601,-24.55013 13.5742,-35.89452 2.3568,-13.27475 1.9853,-49.53428 -0.649,-63.34522 -0.6353,-3.33076 -2.2911,-9.10171 -3.6795,-12.82432 -12.0918,-32.42151 -32.3267,-49.893589 -63.0699,-54.458521 -29.0731,-4.31693 -53.846,3.492417 -72.5522,22.871121 -6.8207,7.06587 -10.97,12.96772 -15.44564,21.96915 -10.94965,22.02206 -14.53999,48.77198 -10.47101,78.01464 3.69065,26.52376 12.09175,44.15338 28.52245,59.8544 10.2115,9.75796 17.8926,14.13621 30.5864,17.43435 17.8825,4.64625 42.9992,3.50529 57.2586,-2.60106 1.7208,-0.73693 3.2589,-1.20972 3.418,-1.05067 0.4229,0.42296 -15.4704,11.07752 -26.3541,17.66727 -41.2593,24.98109 -99.50819,44.13425 -142.62201,46.89636 -12.86031,0.82391 -46.24083,0.80905 -57.00916,-0.0254 z"
     id="path11"
     transform="scale(0.75)" />
  <path
     style="fill:#aa0000;stroke-width:0.712462"
     d="m 1060.1441,261.36206 c -7.9117,-1.68822 -13.5566,-4.76293 -19.2947,-10.50953 -7.8675,-7.87921 -13.2315,-18.99598 -15.7784,-32.7001 -1.8283,-9.83808 -1.801,-45.37377 0.041,-53.92635 3.8967,-18.08794 13.8122,-34.04106 25.7697,-41.46134 4.7954,-2.97574 9.5205,-4.20391 17.8116,-4.6296 16.091,-0.82615 23.7624,1.86069 33.9351,11.88551 4.5693,4.5029 6.8125,7.38414 8.7316,11.21504 6.548,13.07135 8.4237,23.88835 8.4336,48.63556 0.01,19.26441 -0.678,24.86752 -4.3853,35.83517 -6.8588,20.29106 -17.8947,32.03709 -33.5721,35.73228 -5.7344,1.3516 -15.1551,1.31832 -21.6925,-0.0766 z"
     id="path12"
     transform="scale(0.75)" />
  <path
     style="fill:#aa0000;stroke-width:0.712462"
     d="m 875.9726,349.09895 c -29.91091,-4.10775 -59.44625,-15.60251 -78.77868,-30.65958 -14.58231,-11.35744 -24.64063,-25.91477 -30.00697,-43.42886 -1.90569,-6.21959 -1.96492,-6.91498 -1.97236,-23.15503 -0.007,-15.95768 0.0851,-17.1104 1.96959,-24.57995 6.32573,-25.07267 18.52868,-48.76411 36.84839,-71.53932 6.15035,-7.64616 16.38482,-18.80781 16.8338,-18.35883 0.15096,0.15096 -1.12222,3.76817 -2.82927,8.03825 -6.02449,15.06989 -7.29399,25.09963 -6.66397,52.64893 0.54414,23.79406 1.77383,29.90493 9.03224,44.88514 9.54433,19.69801 23.33526,33.54421 42.22871,42.39799 12.03929,5.64179 14.60619,6.05067 37.91847,6.04 22.85495,-0.0105 27.61188,-0.5813 39.38128,-4.72575 8.07371,-2.84308 24.99702,-10.9192 25.47141,-12.15546 0.63103,-1.64443 -12.08724,-29.77562 -13.46172,-29.77562 -0.41368,0 -4.61159,2.22314 -9.32869,4.94032 -15.34595,8.83969 -23.78586,11.41666 -37.43127,11.42895 -9.71941,0.009 -17.39185,-1.5998 -25.11765,-5.26601 -6.10519,-2.89716 -13.51582,-8.33878 -17.23381,-12.65477 -7.53879,-8.7513 -13.06094,-21.42474 -14.69067,-33.71539 -1.1193,-8.44119 -0.46699,-33.04703 1.0577,-39.89789 5.21248,-23.42114 14.31645,-36.44816 31.40447,-44.93716 8.04609,-3.99715 14.0512,-5.26336 25.03631,-5.27908 11.97744,-0.0171 22.1618,2.66418 35.36345,9.31038 3.04708,1.53401 6.14804,2.78911 6.891,2.78911 2.97741,0 15.85762,-18.80136 15.99194,-23.34359 0.0733,-2.47839 -0.0852,-2.63667 -5.62429,-5.61535 -7.6377,-4.107267 -23.678,-10.717859 -30.27965,-12.478982 -4.56017,-1.216514 -7.58893,-1.424925 -20.66141,-1.421718 -8.42487,0.0021 -17.55003,0.334144 -20.27815,0.737952 -2.72811,0.403807 -5.0631,0.631304 -5.18885,0.505549 -0.3788,-0.378802 23.5583,-11.992529 36.51016,-17.713887 29.45377,-13.010908 56.39488,-20.891279 87.98909,-25.737128 18.8944,-2.897979 28.8614,-3.497347 50.8733,-3.0593 21.6778,0.431397 31.678,1.420161 48.3193,4.777553 34.2908,6.918155 64.5185,23.365919 79.6554,43.342725 5.0323,6.641426 11.6779,20.122446 13.2725,26.924126 1.9212,8.1953 1.9081,35.83441 -0.021,44.07008 -5.9519,25.40936 -20.6868,52.80156 -41.3856,76.93557 -5.3914,6.28617 -15.4851,16.85575 -15.798,16.54284 -0.1295,-0.12951 0.8694,-2.31619 2.2198,-4.85931 1.3504,-2.5431 3.5987,-7.58444 4.9961,-11.20297 6.3165,-16.35531 7.9365,-28.70858 7.2554,-55.3257 -0.6511,-25.44685 -2.1303,-33.54635 -8.895,-48.70647 -14.3145,-32.07943 -39.1729,-47.909941 -75.2031,-47.891342 -14.4622,0.0075 -25.2074,2.392283 -36.4343,8.08633 -30.6862,15.563352 -48.73,49.879862 -48.78981,92.790622 -0.0325,23.29211 4.444,44.72487 12.58711,60.26547 8.621,16.45259 25.01,32.09809 39.4614,37.67114 17.0464,6.57378 44.9442,7.4102 61.5167,1.84436 2.7752,-0.93206 5.1537,-1.5887 5.2855,-1.45919 0.3365,0.33057 -12.9077,9.12161 -22.6822,15.05571 -40.3906,24.52118 -94.27155,42.86446 -138.82754,47.26258 -10.68383,1.0546 -59.39422,0.80451 -67.78656,-0.34804 z"
     id="path13"
     transform="scale(0.75)" />
  <path
     style="fill:#ffffff;stroke-width:0.712462"
     d="m 1058.8147,260.69966 c -11.0284,-2.6694 -20.5814,-10.95516 -26.7017,-23.15957 -2.1999,-4.38674 -4.4687,-10.32423 -5.5558,-14.53934 -1.6885,-6.54733 -1.8669,-8.68331 -2.2026,-26.36111 -0.4271,-22.49625 0.2969,-31.18767 3.3596,-40.32925 3.8766,-11.57094 9.0275,-20.23697 16.3265,-27.46834 7.9744,-7.90058 14.4649,-10.22192 28.5431,-10.20859 14.4536,0.0137 20.0313,2.26357 30.0103,12.10519 5.0369,4.96751 6.6776,7.16373 9.1169,12.2032 4.2487,8.77777 6.3176,17.71465 7.2871,31.47688 0.9434,13.39261 0.44,32.7045 -1.0528,40.3887 -0.5709,2.93891 -2.1711,8.50351 -3.5558,12.36576 -6.5496,18.26753 -17.4759,29.91925 -31.4762,33.56585 -5.2634,1.37095 -18.3603,1.34955 -24.0986,-0.0394 z"
     id="path14"
     transform="scale(0.75)" />
  <path
     style="fill:#ffffff;stroke-width:1.42492"
     d="m 69.108859,203.76426 v -83.3581 H 56.284535 43.46021 V 106.86937 93.332583 h 28.498499 28.498501 v 96.894897 96.89489 H 84.783033 69.108859 Z"
     id="path15"
     transform="scale(0.75)" />
  <path
     style="fill:#ffffff;stroke-width:1.42492"
     d="M 76.831901,56.447435 C 70.732231,52.727863 67.174086,44.695351 68.077132,36.683547 70.020214,19.444578 88.56666,12.273642 99.961395,24.35558 115.77388,41.121697 96.211069,68.264827 76.831901,56.447435 Z"
     id="path16"
     transform="scale(0.75)" />
  <path
     style="fill:#ffffff;stroke-width:1.42492"
     d="M 156.02928,190.22748 V 93.332583 h 10.56189 10.56189 l 4.72065,11.978567 4.72064,11.97857 8.60352,-8.77249 c 14.5851,-14.871547 30.11854,-20.676999 51.03237,-19.07279 21.67913,1.662911 36.81102,11.56271 45.86235,30.00472 2.75852,5.62045 5.66907,13.42509 6.46791,17.34363 0.79883,3.91855 1.76189,25.39929 2.14015,47.73499 0.37826,22.3357 0.92672,54.55681 1.21881,71.60248 l 0.53107,30.99211 h -16.0574 -16.0574 l -0.70104,-67.3277 c -0.75747,-72.74757 -1.02456,-75.43705 -8.81119,-88.72392 -5.74048,-9.7954 -12.53194,-12.76126 -29.2732,-12.78378 -15.86374,-0.0213 -22.1041,2.38145 -35.81142,13.7888 l -8.36125,6.9583 v 74.04415 74.04415 h -15.67418 -15.67417 z"
     id="path17"
     transform="scale(0.75)" />
  <path
     style="fill:#ffffff;stroke-width:1.42492"
     d="m 392.56682,285.77498 c -10.13486,-5.6104 -18.67899,-14.96059 -24.533,-26.84744 l -4.67796,-9.49882 -0.42252,-65.93621 -0.42251,-65.9362 H 351.17771 339.84459 V 105.44444 93.332583 h 10.53449 c 8.29159,0 10.71863,-0.479884 11.3994,-2.253928 0.4757,-1.239662 0.86491,-10.793774 0.86491,-21.23136 V 50.869864 l 12.30562,-5.151235 c 6.7681,-2.833179 13.82148,-5.531688 15.67418,-5.996687 l 3.36855,-0.845453 v 27.228047 27.228047 h 25.64865 25.64865 v 12.111857 12.11187 H 419.45062 393.6122 l 0.64892,61.15355 0.64891,61.15357 3.53726,6.87356 c 2.10367,4.08781 6.00675,8.60919 9.63049,11.15605 5.25781,3.69533 7.5915,4.34637 17.02123,4.74851 7.89545,0.33669 13.3508,-0.29723 19.65865,-2.28435 l 8.73064,-2.75039 1.60007,9.68879 c 2.547,15.42267 2.22372,18.21973 -2.31848,20.05986 -2.15519,0.87311 -14.81921,1.85082 -28.14226,2.1727 l -24.22373,0.58523 z"
     id="path18"
     transform="scale(0.75)" />
  <path
     style="fill:#ffffff;stroke-width:1.42492"
     d="m 547.88363,289.17415 c -23.51036,-5.06766 -45.06081,-21.8987 -56.6389,-44.23533 -3.29212,-6.35121 -6.92949,-15.17121 -8.08303,-19.59997 -3.09753,-11.89222 -4.2137,-36.55721 -2.38277,-52.65421 4.63173,-40.72078 31.08379,-72.23777 68.52963,-81.651403 10.82297,-2.720823 32.033,-1.869842 44.4782,1.784538 22.89342,6.722371 41.16258,23.649185 49.65918,46.010425 3.79161,9.97871 6.14792,30.6797 4.94876,43.47655 l -1.00947,10.77258 h -67.74648 -67.74647 l 1.00453,10.19436 c 2.65097,26.90326 14.43793,45.60765 34.73725,55.12361 7.28698,3.41602 9.70712,3.79089 24.4733,3.79089 18.68685,0 26.82099,-2.13327 38.75419,-10.16372 4.01462,-2.70165 7.78895,-4.40549 8.38742,-3.78634 0.59847,0.61916 3.68888,5.96761 6.86757,11.88547 l 5.77946,10.75973 -7.79201,4.72246 c -14.96842,9.07182 -41.60015,15.99778 -60.29306,15.68008 -3.66591,-0.0623 -10.83319,-1.01167 -15.9273,-2.10972 z m 69.82132,-123.58348 c 0,-6.90164 -4.60034,-20.56634 -9.33631,-27.73228 -9.8372,-14.88453 -23.59873,-21.05714 -44.67079,-20.03668 -10.54768,0.51079 -13.50575,1.26296 -21.266,5.40745 -4.95775,2.64778 -11.28929,7.42399 -14.07008,10.61381 -6.14096,7.04423 -12.80178,20.73104 -14.09111,28.9547 l -0.94946,6.05593 h 52.19188 52.19187 z"
     id="path19"
     transform="scale(0.75)" />
  <path
     style="fill:#ffffff;stroke-width:1.42492"
     d="M 687.52628,190.22748 V 93.332583 h 15.52046 15.52047 l 1.0449,14.598847 1.0449,14.59885 3.73981,-4.96998 c 13.85545,-18.413019 26.69441,-26.630929 43.71802,-27.982857 8.87118,-0.704504 26.9899,1.139415 28.77932,2.928834 0.73427,0.734268 -9.27813,27.818993 -10.98696,29.721043 -0.54785,0.60979 -3.83149,-0.17765 -7.29699,-1.74986 -8.5538,-3.88065 -21.25977,-3.86655 -29.3142,0.0325 -12.06463,5.84039 -24.41482,22.83843 -27.71055,38.13909 -0.7869,3.65321 -1.80414,34.0542 -2.26055,67.55775 l -0.82982,60.91554 h -15.48441 -15.4844 z"
     id="path20"
     transform="scale(0.75)" />
  <path
     style="fill:#ffffff;stroke-width:1.42492"
     d="m 1167.9395,268.95458 c -0.1831,-8.85679 0.1321,-10.33071 2.2088,-10.33071 1.8841,0 2.0424,0.37998 0.7125,1.70991 -0.9404,0.94045 -1.7099,3.18471 -1.7099,4.98724 0,2.86928 0.7041,3.27733 5.655,3.27733 4.4101,0 5.4766,0.46475 4.8448,2.11129 -0.6262,1.63192 -1.4502,1.76877 -3.629,0.60274 -3.9651,-2.12208 -6.5646,-0.70186 -7.267,3.97021 -0.3309,2.20148 -0.6978,-0.64612 -0.8152,-6.32801 z"
     id="path21"
     transform="scale(0.75)" />
  <path
     style="fill:#ffffff;stroke-width:1.42492"
     d=""
     id="path22"
     transform="scale(0.75)" />
  <path
     style="fill:#ffffff;stroke-width:1.42492"
     d=""
     id="path23"
     transform="scale(0.75)" />
  <path
     style="fill:#ffffff;stroke-width:0.0890578"
     d="m 1183.4803,281.03509 c -0.9165,-0.67019 -2.2885,-2.29558 -3.6886,-4.36957 -1.0128,-1.50034 -1.7227,-2.39034 -2.6933,-3.37664 -1.6829,-1.71025 -3.089,-2.50861 -4.4179,-2.50861 -1.2514,0 -2.0651,0.56519 -2.6565,1.84511 -0.4679,1.01263 -0.6385,1.99546 -0.7387,4.25534 -0.1074,2.42391 -0.3348,3.47234 -0.8187,3.77451 -0.6205,0.38752 -1.1046,-1.21689 -1.4479,-4.79867 -0.2489,-2.59733 -0.3144,-4.90218 -0.3157,-11.10996 v -6.0782 h 1.3045 1.3045 l -0.3012,0.20302 c -0.8847,0.59615 -1.1484,2.16464 -1.1487,6.83255 -4e-4,4.22626 0.2009,8.62505 0.4511,9.86315 0.1281,0.63364 0.3087,0.61507 0.4329,-0.0445 0.3556,-1.88845 0.7583,-2.98588 1.3908,-3.7905 0.6916,-0.87975 1.5807,-1.30927 2.705,-1.30674 0.8874,0.002 1.6079,0.21233 3.0301,0.8846 0.7124,0.33675 1.4556,0.65568 1.6515,0.70873 0.8296,0.22462 1.4357,0.0301 1.8264,-0.58595 l 0.2439,-0.38454 0.042,0.44059 c 0.051,0.53136 0.3725,1.08914 1.2342,2.14186 2.7339,3.34007 3.2918,4.10619 3.8905,5.34294 0.3542,0.73158 0.4767,1.51781 0.2908,1.8653 -0.123,0.22979 -0.596,0.45021 -0.9661,0.45021 -0.1417,0 -0.4123,-0.11381 -0.604,-0.254 z"
     id="path24"
     transform="scale(0.75)" />
  <path
     style="fill:#ffffff;stroke-width:0.0890578"
     d="m 1179.6539,270.8636 c 0.2216,-0.7057 0.2545,-1.02891 0.1309,-1.28595 -0.3618,-0.7526 -1.6653,-1.01699 -5.0361,-1.02153 -3.0462,-0.004 -4.3757,-0.24197 -4.9586,-0.8871 -0.4219,-0.46705 -0.5181,-0.83202 -0.5527,-2.09864 l -0.029,-1.06869 0.08,0.83821 c 0.1641,1.71273 0.5352,2.20081 1.9107,2.51356 0.8434,0.19175 5.4456,0.16728 6.5195,-0.0347 1.7374,-0.3267 2.7164,-0.82228 3.1223,-1.58047 0.2873,-0.5366 0.238,-1.17656 -0.1497,-1.94461 -0.6828,-1.35264 -1.925,-2.1414 -4.2377,-2.69092 -1.7383,-0.41306 -4.8591,-0.39428 -5.9235,0.0356 -0.2932,0.11844 -0.5331,0.19864 -0.5331,0.17821 0,-0.17645 0.5471,-1.04067 0.889,-1.40425 0.5278,-0.5612 0.8921,-1.0946 0.8921,-1.30608 0,-0.0883 -0.086,-0.22108 -0.1918,-0.29497 -0.1736,-0.12162 -0.07,-0.13021 1.091,-0.0908 2.8346,0.0963 4.7918,0.34072 6.359,0.79425 2.8666,0.82954 4.397,2.18547 4.8245,4.27441 0.1245,0.60863 0.1301,0.82175 0.038,1.46236 -0.1912,1.333 -0.8346,2.67526 -1.7529,3.65699 -0.2225,0.23791 -0.7394,0.65766 -1.1487,0.93277 -0.4092,0.27512 -0.8942,0.66648 -1.0778,0.86969 -0.2696,0.29843 -0.3207,0.32776 -0.2657,0.15256 z"
     id="path25"
     transform="scale(0.75)" />
  <path
     style="fill:#ffffff;stroke-width:0.0890578"
     d="m 1173.5908,288.04936 c -2.1758,-0.19417 -4.5114,-0.87765 -6.6663,-1.95075 -1.788,-0.89035 -2.8232,-1.62647 -4.1965,-2.98384 -1.9926,-1.96949 -3.3021,-4.08606 -4.2152,-6.81292 -1.7001,-5.07751 -1.1054,-11.02535 1.5542,-15.54443 2.3017,-3.91101 5.8866,-6.61388 10.3752,-7.82264 6.568,-1.7687 13.7111,0.29794 18.0933,5.23478 2.3844,2.68616 4.016,6.27353 4.4923,9.87708 0.2097,1.58657 0.1283,3.99079 -0.186,5.49442 -0.8364,4.00096 -2.8821,7.47699 -5.9554,10.11908 -3.7795,3.24929 -8.5227,4.81515 -13.2956,4.38922 z m 4.4597,-2.925 c 6.1287,-1.07506 10.8427,-5.8124 12.2298,-12.29057 0.2215,-1.03435 0.2395,-1.27573 0.2393,-3.21128 -3e-4,-2.25821 -0.091,-2.93137 -0.6279,-4.65535 -0.2872,-0.92218 -1.1342,-2.67283 -1.6974,-3.50838 -2.2064,-3.27309 -5.8724,-5.59479 -10.1945,-6.45609 -1.3349,-0.26603 -3.958,-0.28995 -5.1975,-0.0474 -1.8945,0.37071 -3.8932,1.14285 -5.5882,2.15883 -4.4047,2.6402 -6.4298,5.88596 -7.1095,11.39517 -0.06,0.48982 -0.1107,1.75221 -0.1115,2.80532 0,1.62992 0.027,2.04363 0.1886,2.7812 0.5034,2.29195 1.5622,3.9309 4.3352,6.7106 2.304,2.30959 3.29,3.07191 4.8403,3.74218 1.4259,0.61646 3.1126,0.84351 5.8942,0.79342 1.2445,-0.0224 2.0376,-0.0841 2.7991,-0.21765 z"
     id="path26"
     transform="scale(0.75)" />
  <path
     style="fill:#d40000;stroke-width:1.42492"
     d="m 876.32883,348.35043 c -29.10219,-3.15603 -61.22487,-16.17747 -82.34026,-33.37794 -9.77652,-7.96391 -21.05596,-24.53437 -25.22198,-37.05325 -2.79248,-8.3914 -3.06901,-11.62995 -2.5339,-29.6753 0.51168,-17.25499 1.16586,-21.9023 4.41562,-31.36851 5.5616,-16.20037 15.75657,-35.9335 25.71424,-49.77181 10.62649,-14.76778 22.80031,-28.55156 21.73652,-24.61113 -0.42315,1.56742 -2.14784,7.33837 -3.83265,12.82433 -2.68196,8.73285 -3.05294,13.25589 -2.98027,36.33558 0.0958,30.41371 1.37409,37.03997 10.55476,54.71135 8.63525,16.62151 22.10682,29.86865 38.6971,38.0524 l 12.70768,6.26853 25.38079,0.44586 c 29.04577,0.51025 34.93812,-0.52162 54.44702,-9.53475 8.4035,-3.88243 12.31314,-6.45735 12.31314,-8.10951 0,-3.3868 -12.52219,-29.47615 -13.86355,-28.884 -0.60399,0.26665 -7.4501,3.69089 -15.21357,7.60943 l -14.11541,7.12463 h -16.52048 c -14.87191,0 -17.3196,-0.3747 -24.52857,-3.75492 -15.05605,-7.05962 -24.54875,-18.35797 -29.91772,-35.60849 -3.48622,-11.20125 -3.75703,-41.58187 -0.48328,-54.21569 5.16596,-19.93609 14.99166,-33.13937 30.23084,-40.62265 7.53234,-3.69879 9.47245,-4.01566 24.56489,-4.01208 15.7754,0.004 16.8793,0.20874 29.59432,5.49542 15.29177,6.35806 14.74889,6.51759 23.43752,-6.88764 8.25746,-12.73999 7.58841,-14.3784 -8.85917,-21.695085 -20.52999,-9.132738 -29.06982,-10.90333 -48.44745,-10.044764 l -16.38663,0.726043 15.67417,-7.646966 c 42.0403,-20.510223 79.55816,-31.616936 122.54355,-36.277555 18.2311,-1.976681 53.5634,-0.899872 72.8555,2.220388 47.7219,7.718434 82.2993,28.684023 97.0367,58.836989 l 5.3736,10.9945 v 23.51126 c 0,21.06225 -0.3474,24.47603 -3.3347,32.77328 -5.7768,16.04484 -12.8102,30.0032 -22.2128,44.0827 -8.7504,13.10281 -27.837,36.23825 -28.9655,35.10982 -0.3,-0.30001 0.7169,-3.01994 2.2598,-6.04429 1.5429,-3.02433 4.3128,-10.30015 6.1554,-16.16848 3.0658,-9.76461 3.3477,-13.14759 3.323,-39.88065 -0.03,-32.67998 -1.262,-39.83127 -9.9318,-57.66436 -14.133,-29.0702 -35.7553,-42.998703 -69.1245,-44.528018 -26.6128,-1.219666 -44.186,5.325184 -62.029,23.101668 -21.18866,21.10966 -31.53331,55.62843 -27.74217,92.57206 3.11397,30.34495 10.09274,47.60481 26.03377,64.38653 11.4013,12.00265 18.4868,16.67847 31.3315,20.67619 11.6541,3.62716 32.0941,4.89365 44.3983,2.75096 5.3432,-0.93047 9.9908,-1.41589 10.328,-1.07869 0.8994,0.89941 -25.4331,16.82599 -39.0202,23.60051 -33.9096,16.90712 -76.14095,29.88894 -111.50609,34.27667 -13.49454,1.67426 -56.66609,1.6919 -71.99608,0.0294 z"
     id="path27"
     transform="scale(0.75)" />
  <path
     style="fill:#ff0000;stroke-width:1.42492"
     d="m 872.76652,347.42984 c -37.3288,-6.03796 -72.87715,-23.69076 -88.95264,-44.1726 -14.51858,-18.49816 -18.16739,-32.01885 -16.46738,-61.02 1.35069,-23.04199 8.42725,-42.31238 24.85521,-67.68394 6.87931,-10.62449 23.52965,-31.86148 24.34273,-31.0484 0.30002,0.30002 -0.43829,3.72166 -1.6407,7.60363 -5.68471,18.35313 -5.30123,65.74898 0.66737,82.48249 8.59487,24.09646 27.39959,43.88014 52.03307,54.74185 6.28822,2.77268 9.40689,3.06096 32.77327,3.02944 14.20306,-0.0191 28.70922,-0.69773 32.23591,-1.50793 3.52669,-0.8102 12.34341,-4.28055 19.59272,-7.71188 9.75977,-4.6196 13.18056,-6.93625 13.18056,-8.92618 0,-2.84983 -12.17986,-28.8417 -13.51529,-28.8417 -0.43216,0 -7.29722,3.26763 -15.25572,7.26138 l -14.46998,7.26137 -17.92117,-0.53964 c -20.56608,-0.61929 -25.34881,-2.36273 -37.39667,-13.6321 -13.68258,-12.79844 -19.65477,-33.92358 -17.56083,-62.11693 2.11008,-28.41061 12.74503,-47.32881 32.00006,-56.924 7.03785,-3.50711 9.18631,-3.85362 23.89378,-3.85362 15.07661,0 17.03158,0.33638 29.14615,5.01503 7.14207,2.75827 14.03531,4.68186 15.31833,4.27465 3.44927,-1.09476 14.33641,-18.39683 14.33641,-22.78374 0,-3.37526 -1.43105,-4.46369 -13.19659,-10.037075 -17.9944,-8.524032 -27.10576,-10.654876 -45.88094,-10.730038 l -15.73103,-0.06298 5.6997,-3.015287 c 33.26241,-17.59667 77.89141,-32.033069 116.13135,-37.565684 21.067,-3.048 71.2291,-2.243206 89.7703,1.440263 45.5995,9.058968 76.3632,28.397633 91.7477,57.674381 l 5.1472,9.79506 v 23.70407 c 0,20.28264 -0.4305,24.98304 -2.9823,32.5649 -4.6521,13.82207 -13.3017,30.97368 -22.5551,44.72571 -8.5404,12.69228 -24.2598,32.36922 -25.1488,31.48025 -0.2642,-0.26423 1.5742,-6.22734 4.0853,-13.25136 l 4.5656,-12.77094 -0.024,-32.06081 c -0.027,-36.18725 -0.8489,-40.72915 -10.869,-60.04461 -10.3338,-19.92001 -25.1719,-32.827617 -44.9692,-39.118491 -9.6652,-3.071249 -35.2836,-4.226755 -46.3093,-2.088758 -22.3771,4.339177 -43.9612,21.703339 -55.06968,44.303089 -14.05224,28.58861 -16.55077,62.1735 -7.20119,96.79664 4.12438,15.27324 10.49047,26.27756 22.48757,38.87161 18.1573,19.06068 35.2163,25.02119 67.1274,23.45474 l 16.3681,-0.80347 -9.9559,6.32512 c -34.5046,21.92118 -81.2802,39.71763 -125.26785,47.66 -13.00104,2.34747 -21.33951,2.7788 -50.58484,2.61675 -19.25972,-0.10673 -36.62072,-0.45334 -38.57999,-0.77026 z"
     id="path28"
     transform="scale(0.75)" />
  <path
     style="fill:#ff0000;stroke-width:1.42492"
     d="m 1060.5426,260.20253 c -13.0904,-2.75651 -24.5406,-14.19205 -31.2012,-31.16122 -2.7714,-7.06077 -3.2901,-11.51165 -3.7966,-32.58122 -0.3633,-15.1085 0.032,-27.38485 1.0384,-32.23139 3.629,-17.48073 16.8605,-37.07248 28.3238,-41.93864 7.8998,-3.35348 21.4971,-3.96212 30.4394,-1.36252 15.2058,4.42045 27.3921,20.08186 31.3109,40.23976 0.8981,4.61932 1.6138,18.01701 1.5906,29.77264 -0.037,18.78369 -0.4685,22.68582 -3.5602,32.19991 -7.8054,24.01881 -20.9267,36.35999 -39.9782,37.60133 -4.8761,0.31772 -11.2512,0.0753 -14.1669,-0.53865 z"
     id="path29"
     transform="scale(0.75)" />
</svg>
